<svg xmlns="http://www.w3.org/2000/svg" viewBox="0 0 900 620" role="img" aria-label="Estamos aquí">
  <defs>
    <linearGradient id="bg" x1="0" y1="0" x2="1" y2="1">
      <stop offset="0" stop-color="#2b1e16"/>
      <stop offset="0.48" stop-color="#6b4a2e"/>
      <stop offset="1" stop-color="#120d09"/>
    </linearGradient>
    <radialGradient id="glow" cx="65%" cy="42%" r="45%">
      <stop offset="0" stop-color="#fff1c5" stop-opacity="1"/>
      <stop offset="0.36" stop-color="#e0a84d" stop-opacity=".70"/>
      <stop offset="1" stop-color="#2b1e16" stop-opacity="0"/>
    </radialGradient>
    <linearGradient id="plate" x1="0" y1="0" x2="1" y2="1">
      <stop offset="0" stop-color="#ffe5a6"/>
      <stop offset="1" stop-color="#b87628"/>
    </linearGradient>
    <filter id="shadow" x="-20%" y="-20%" width="140%" height="150%">
      <feDropShadow dx="0" dy="22" stdDeviation="22" flood-color="#000" flood-opacity=".35"/>
    </filter>
  </defs>
  <rect width="900" height="620" fill="url(#bg)"/>
  <rect width="900" height="620" fill="url(#glow)"/>
  <circle cx="128" cy="428" r="86" fill="#211710" opacity=".45"/>
  <rect x="60" y="410" width="300" height="28" rx="14" fill="#8b6237" opacity=".46"/>
  <rect x="82" y="360" width="120" height="44" rx="8" fill="#3a281d" opacity=".55"/>
  <path d="M140 328c25-50 95-52 120 0" fill="none" stroke="#bb8a44" stroke-width="9" opacity=".45"/>
  <g filter="url(#shadow)">
    <rect x="516" y="71" width="298" height="430" rx="12" fill="#2b1e16" />
    <rect x="532" y="87" width="266" height="376" rx="5" fill="#6b4a2e"/>
    <rect x="540" y="95" width="250" height="360" rx="4" fill="url(#plate)"/>
    <g opacity=".48" stroke="#fff7df" stroke-width="8" stroke-linecap="round" fill="none">
      <circle cx="630.0" cy="221.0" r="32.5"/>
      <circle cx="695.0" cy="210.2" r="37.5"/>
      <circle cx="665.0" cy="293.0" r="27.5"/>
      <path d="M602.5 339.8c70-60 150-50 200 0" />
      <path d="M572.5 159.8c80 25 160 20 220-10" opacity=".45"/>
      <path d="M585.0 390.2c70-28 160-22 220-5" opacity=".36"/>
    </g>
    <rect x="504" y="479" width="322" height="42" rx="16" fill="#1d140f"/>
    <rect x="528" y="488" width="274" height="12" rx="6" fill="#8c6236" opacity=".6"/>
  </g>
  <text x="70" y="105" font-family="Georgia, serif" font-size="42" fill="#fff8e8">Estamos aquí</text>
  <text x="72" y="150" font-family="Arial, sans-serif" font-size="22" fill="#eadac4">para ayudarte</text>
  <text x="72" y="185" font-family="Arial, sans-serif" font-size="18" fill="#c89b4a">TAKARA 3D · litofanía personalizada</text>
</svg>
